{"title":"WWE.Extreme.Rules.2011.Preview.x264-SPK1998","uid":6358556,"size":157594276,"categoryP":"video","categoryS":"tv_shows","magnet":"?xt=urn:btih:20606029b1294e34206bfae26fea970838cf5253&amp;dn=WWE.Extreme.Rules.2011.Preview.x264-SPK1998&amp;tr=udp%3A%2F%2Ftracker.openbittorrent.com%3A80&amp;tr=udp%3A%2F%2Fopen.demonii.com%3A1337&amp;tr=udp%3A%2F%2Ftracker.coppersurfer.tk%3A6969&amp;tr=udp%3A%2F%2Fexodus.desync.com%3A6969","seeders":0,"leechers":1,"uploader":"spyke1998","files":1,"time":1304241181,"description":"Format                           : AVI\nFormat/Info                      : Audio Video Interleave\nFile size                        : 150 MiB\nDuration                         : 23mn 2s\nOverall bit rate                 : 912 Kbps\n\nVideo\nID                               : 0\nFormat                           : AVC\nFormat/Info                      : Advanced Video Codec\nFormat profile                   : &lt;a class=&quot;__cf_email__&quot; href=&quot;/cdn-cgi/l/email-protection&quot; data-cfemail=&quot;f6b49785939a9f9893b6bac4d8c7&quot;&gt;[email&amp;#160;protected]&lt;/a&gt;&lt;script cf-hash='f9e31' type=&quot;text/javascript&quot;&gt;\n/* &lt;![CDATA[ */!function(){try{var t=&quot;currentScript&quot;in document?document.currentScript:function(){for(var t=document.getElementsByTagName(&quot;script&quot;),e=t.length;e--;)if(t[e].getAttribute(&quot;cf-hash&quot;))return t[e]}();if(t&amp;&amp;t.previousSibling){var e,r,n,i,c=t.previousSibling,a=c.getAttribute(&quot;data-cfemail&quot;);if(a){for(e=&quot;&quot;,r=parseInt(a.substr(0,2),16),n=2;a.length-n;n+=2)i=parseInt(a.substr(n,2),16)^r,e+=String.fromCharCode(i);e=document.createTextNode(e),c.parentNode.replaceChild(e,c)}}}catch(u){}}();/* ]]&gt; */&lt;/script&gt;\nFormat settings, CABAC           : No\nFormat settings, ReFrames        : 1 frame\nCodec ID                         : avc1\nDuration                         : 23mn 2s\nBit rate                         : 767 Kbps\nWidth                            : 320 pixels\nHeight                           : 180 pixels\nDisplay aspect ratio             : 16:9\nFrame rate                       : 23.976 fps\nColor space                      : YUV\nChroma subsampling               : 4:2:0\nBit depth                        : 8 bits\nScan type                        : Progressive\nBits/(Pixel*Frame)               : 0.555\nStream size                      : 126 MiB (84%)\n\nAudio\nID                               : 1\nFormat                           : MPEG Audio\nFormat version                   : Version 1\nFormat profile                   : Layer 3\nMode                             : Joint stereo\nMode extension                   : MS Stereo\nCodec ID                         : 55\nCodec ID/Hint                    : MP3\nDuration                         : 23mn 2s\nBit rate mode                    : Constant\nBit rate                         : 128 Kbps\nChannel(s)                       : 2 channels\nSampling rate                    : 48.0 KHz\nCompression mode                 : Lossy\nDelay relative to video          : 21ms\nStream size                      : 21.1 MiB (14%)\nAlignment                        : Split accross interleaves\nInterleave, duration             : 24 ms (0.58 video frame)","torrent":{"xt":"urn:btih:20606029b1294e34206bfae26fea970838cf5253","amp;dn":"WWE.Extreme.Rules.2011.Preview.x264-SPK1998","amp;tr":["udp%3A%2F%2Ftracker.openbittorrent.com%3A80","udp%3A%2F%2Fopen.demonii.com%3A1337","udp%3A%2F%2Ftracker.coppersurfer.tk%3A6969","udp%3A%2F%2Fexodus.desync.com%3A6969"],"infoHash":"20606029b1294e34206bfae26fea970838cf5253","infoHashBuffer":{"type":"Buffer","data":[32,96,96,41,177,41,78,52,32,107,250,226,111,234,151,8,56,207,82,83]},"announce":[],"urlList":[]}}